{
    "asset" : {
        "generator" : "Khronos glTF Blender I/O v1.5.17",
        "version" : "2.0"
    },
    "scene" : 0,
    "scenes" : [
        {
            "name" : "Scene",
            "nodes" : [
                0
            ]
        }
    ],
    "nodes" : [
        {
            "mesh" : 0,
            "name" : "BaseSpiderMan_Mesh_Model001_24_GTAMtl_1.0_0.0_0.001",
            "rotation" : [
                0.5342617630958557,
                0.48745623230934143,
                -0.4625107944011688,
                0.5128691792488098
            ],
            "scale" : [
                2.331592559814453,
                2.3224730491638184,
                2.331592321395874
            ],
            "translation" : [
                0.46231377124786377,
                0.09752882272005081,
                0.08383145183324814
            ]
        }
    ],
    "materials" : [
        {
            "doubleSided" : true,
            "name" : "Material.001",
            "pbrMetallicRoughness" : {
                "baseColorTexture" : {
                    "index" : 0
                },
                "metallicFactor" : 0.9240506291389465,
                "roughnessFactor" : 0.5
            }
        }
    ],
    "meshes" : [
        {
            "name" : "BaseSpiderMan_Mesh_Model001_24_GTAMtl_1.0_0.0_0.001",
            "primitives" : [
                {
                    "attributes" : {
                        "POSITION" : 0,
                        "NORMAL" : 1,
                        "TEXCOORD_0" : 2
                    },
                    "indices" : 3,
                    "material" : 0
                }
            ]
        }
    ],
    "textures" : [
        {
            "sampler" : 0,
            "source" : 0
        }
    ],
    "images" : [
        {
            "bufferView" : 4,
            "mimeType" : "image/png",
            "name" : "D1"
        }
    ],
    "accessors" : [
        {
            "bufferView" : 0,
            "componentType" : 5126,
            "count" : 17893,
            "max" : [
                1.823773980140686,
                0.46734699606895447,
                -8.399999933317304e-05
            ],
            "min" : [
                -1.8025870323181152,
                -0.43573200702667236,
                -4.469470977783203
            ],
            "type" : "VEC3"
        },
        {
            "bufferView" : 1,
            "componentType" : 5126,
            "count" : 17893,
            "type" : "VEC3"
        },
        {
            "bufferView" : 2,
            "componentType" : 5126,
            "count" : 17893,
            "type" : "VEC2"
        },
        {
            "bufferView" : 3,
            "componentType" : 5123,
            "count" : 99720,
            "type" : "SCALAR"
        }
    ],
    "bufferViews" : [
        {
            "buffer" : 0,
            "byteLength" : 214716,
            "byteOffset" : 0
        },
        {
            "buffer" : 0,
            "byteLength" : 214716,
            "byteOffset" : 214716
        },
        {
            "buffer" : 0,
            "byteLength" : 143144,
            "byteOffset" : 429432
        },
        {
            "buffer" : 0,
            "byteLength" : 199440,
            "byteOffset" : 572576
        },
        {
            "buffer" : 0,
            "byteLength" : 1869457,
            "byteOffset" : 772016
        }
    ],
    "samplers" : [
        {
            "magFilter" : 9729,
            "minFilter" : 9987
        }
    ],
    "buffers" : [
        {
            "byteLength" : 2641476,
            "uri" : "data:application/octet-stream;base64,"
        }
    ]
}
